<?xml version="1.0" encoding="utf-8"?>
<!-- Generator: Adobe Illustrator 24.3.0, SVG Export Plug-In . SVG Version: 6.00 Build 0)  -->
<svg version="1.2" baseProfile="tiny" id="Layer_1" xmlns="http://www.w3.org/2000/svg" xmlns:xlink="http://www.w3.org/1999/xlink"
	 x="0px" y="0px" viewBox="0 0 36 36" overflow="visible" xml:space="preserve">
<g>
	<g>
		<g>
			<path fill="#FFFFFF" d="M24.8,12c-0.3,0.4-6.2,8.9-6.7,9.6c-1.4,1.9-4.8,6.2-10,6.3c-2.8,0.1-5.2-1.1-7-2.8
				c1.8,6.4,9.6,6.3,12,5.4c3.7-1.3,6.1-3.4,8.8-6.8c1.6-2,5.8-8.8,8.6-12.6C33.1,7.8,35,7.4,35,7.4C32.8,7,28.7,6.4,24.8,12z"/>
			<path fill="#FFFFFF" d="M34,5.9C33,5.9,32,5.9,31,6.1c-0.5,0.1-1,0.2-1.4,0.4c-0.5,0.2-0.9,0.4-1.3,0.7c-1.7,1-3.1,2.5-4.3,4.2
				l-1.8,2.6c-0.6,0.9-1.2,1.7-1.8,2.6c-1.2,1.7-2.5,3.4-3.8,5c0.4-1,0.9-1.9,1.4-2.8c0.5-0.9,1-1.8,1.6-2.7
				c0.5-0.9,1.1-1.8,1.7-2.7c0.6-0.9,1.1-1.7,1.7-2.6c1.3-1.7,2.9-3.3,4.8-4.3c0.5-0.2,1-0.5,1.5-0.6c0.5-0.1,1.1-0.2,1.6-0.3
				C32,5.5,33,5.6,34,5.9z"/>
		</g>
		<g>
			<g>
				<g>
					<path fill="#FFFFFF" d="M25.9,19.6c-1.4,2.1-2.5,3.9-3.3,4.7c-0.1,0.1-0.2,0.2-0.2,0.3c1.3,3.4,3.4,5.9,7.1,5.5
						c0.9-0.1,1.7-0.3,2.3-0.5C29.6,29.1,26.9,23.3,25.9,19.6z"/>
					<path fill="#FFFFFF" d="M22.1,9.7C22.1,9.7,22.1,9.7,22.1,9.7C22,9.6,22,9.5,21.9,9.4c0,0,0,0,0,0c0,0,0-0.1-0.1-0.1
						c-0.1-0.1-0.1-0.1-0.2-0.2c0,0,0,0,0-0.1c0,0,0,0,0,0c-0.1-0.1-0.2-0.2-0.3-0.3c0,0,0,0,0,0c0,0,0,0-0.1-0.1
						c-0.1-0.1-0.1-0.1-0.2-0.2c0,0,0,0,0,0c0,0,0,0-0.1,0c-0.1-0.1-0.2-0.1-0.2-0.2c0,0,0,0,0,0c0,0,0,0,0,0
						c-0.1-0.1-0.2-0.2-0.3-0.2c0,0,0,0,0,0c0,0,0,0-0.1,0C20.1,7.7,20,7.7,20,7.6c0,0,0,0-0.1,0c0,0,0,0,0,0
						c-0.1-0.1-0.2-0.1-0.3-0.2c0,0,0,0,0,0c0,0,0,0-0.1,0c-0.1,0-0.2-0.1-0.3-0.1c0,0,0,0-0.1,0c0,0,0,0,0,0
						c-0.1-0.1-0.3-0.1-0.4-0.1c-0.1,0-0.2-0.1-0.3-0.1c0,0,0,0,0,0c0,0-0.1,0-0.1,0c-0.1,0-0.1,0-0.2-0.1c0,0,0,0-0.1,0
						c0,0-0.1,0-0.1,0c-0.1,0-0.1,0-0.2,0c0,0-0.1,0-0.1,0c0,0-0.1,0-0.1,0c0,0-0.1,0-0.1,0c0,0-0.1,0-0.1,0c0,0-0.1,0-0.1,0
						c0,0-0.1,0-0.1,0c-0.1,0-0.1,0-0.2,0c0,0,0,0,0,0c0,0-0.1,0-0.1,0c0,0-0.1,0-0.1,0c-0.1,0-0.1,0-0.2,0c-0.1,0-0.1,0-0.2,0
						c0,0,0,0-0.1,0c-0.1,0-0.1,0-0.2,0c-0.1,0-0.1,0-0.2,0c0,0-0.1,0-0.1,0c0,0-0.1,0-0.1,0c-0.1,0-0.2,0-0.2,0c0,0-0.1,0-0.1,0
						c0,0,0,0,0,0c-0.1,0-0.2,0-0.3,0c0,0-0.1,0-0.1,0c0,0-0.1,0-0.1,0c-0.1,0-0.2,0-0.2,0c0,0-0.1,0-0.1,0c0,0-0.1,0-0.1,0
						c-0.1,0-0.1,0-0.2,0c0,0-0.1,0-0.1,0c-0.1,0-0.2,0-0.3,0.1c0,0-0.1,0-0.1,0c0,0-0.1,0-0.1,0c0,0-0.1,0-0.1,0c0,0-0.1,0-0.1,0
						c0,0,0,0-0.1,0c-0.1,0-0.1,0-0.2,0.1c0,0-0.1,0-0.1,0c0,0,0,0-0.1,0c0,0,0,0,0,0c-0.1,0-0.2,0-0.2,0.1c0,0-0.1,0-0.1,0
						c-0.1,0-0.2,0.1-0.3,0.1c0,0-0.1,0-0.1,0c-0.3,0.1-0.6,0.2-0.9,0.4c0,0,0,0,0,0C10.7,8,10.6,8,10.4,8.1c0,0-0.1,0-0.1,0
						c-0.1,0.1-0.2,0.1-0.4,0.2c0,0-0.1,0-0.1,0.1C9.7,8.5,9.6,8.5,9.5,8.6c0,0-0.1,0-0.1,0.1C9.2,8.7,9.1,8.8,9,8.9c0,0,0,0,0,0
						C8.6,9.1,8.3,9.3,8,9.5c0,0,0,0,0,0C7.9,9.6,7.7,9.7,7.6,9.8c0,0,0,0-0.1,0.1c-0.1,0.1-0.2,0.2-0.4,0.3c0,0,0,0-0.1,0.1
						c-0.1,0.1-0.3,0.2-0.4,0.3c0,0,0,0,0,0c-0.1,0.1-0.3,0.3-0.4,0.4c0,0-0.1,0.1-0.1,0.1c0,0,0,0-0.1,0.1c0,0-0.1,0.1-0.1,0.1
						c-0.1,0.1-0.2,0.1-0.2,0.2c0,0-0.1,0.1-0.1,0.1c0,0,0,0-0.1,0.1c0,0-0.1,0.1-0.1,0.1c-0.1,0.1-0.1,0.1-0.2,0.2
						c0,0.1-0.1,0.1-0.1,0.2c0,0,0,0-0.1,0.1c0,0,0,0-0.1,0.1c0,0,0,0,0,0c-0.1,0.1-0.1,0.2-0.2,0.2c0,0.1-0.1,0.1-0.1,0.2
						c0,0,0,0,0,0c0,0-0.1,0.1-0.1,0.1c0,0-0.1,0.1-0.1,0.1c0,0.1-0.1,0.1-0.1,0.2c0,0,0,0,0,0c0,0-0.1,0.1-0.1,0.1
						c0,0.1-0.1,0.1-0.1,0.2c-0.1,0.1-0.2,0.2-0.3,0.4c0,0-0.1,0.1-0.1,0.1c-0.1,0.2-0.2,0.3-0.3,0.5c0,0-0.1,0.1-0.1,0.1
						c-0.1,0.1-0.2,0.3-0.3,0.4c0,0.1-0.1,0.1-0.1,0.2c-0.1,0.1-0.2,0.3-0.3,0.4c0,0,0,0.1,0,0.1c-0.1,0.2-0.2,0.4-0.3,0.5
						c0,0,0,0,0,0.1c0,0,0,0,0,0c-0.4,0.7-0.7,1.4-0.9,2.2c-0.3,1-2.1,7.6,6.8,8.9c0,0,0.1,0,0.1,0c-1.7-0.7-3.4-2.6-2.1-7.7
						c0.3-1.4,0.8-2.6,1.5-3.8c0.1-0.1,0.2-0.3,0.2-0.4c0,0,0,0,0-0.1C8,15,8.1,14.9,8.1,14.8c0,0,0,0,0,0c0.1-0.1,0.2-0.2,0.2-0.4
						c0,0,0-0.1,0.1-0.1c0.1-0.1,0.2-0.2,0.2-0.3c0,0,0,0,0,0c0.1-0.1,0.2-0.2,0.3-0.4c0,0,0,0,0,0c0.2-0.3,0.4-0.5,0.6-0.7
						c0,0,0-0.1,0.1-0.1c0.1-0.1,0.1-0.1,0.2-0.2c0-0.1,0.1-0.1,0.1-0.2c0.1-0.1,0.1-0.1,0.2-0.2c0.1-0.1,0.1-0.1,0.2-0.2
						c0.1-0.1,0.1-0.1,0.2-0.2c0.1-0.1,0.1-0.1,0.2-0.2c0,0,0.1-0.1,0.1-0.1c0.1-0.1,0.3-0.2,0.4-0.3c0,0,0.1-0.1,0.1-0.1
						c0.1-0.1,0.3-0.2,0.4-0.3c0,0,0.1,0,0.1-0.1c0.1-0.1,0.2-0.1,0.3-0.2c0,0,0.1,0,0.1-0.1c0.1-0.1,0.2-0.1,0.3-0.2c0,0,0,0,0,0
						c0.1-0.1,0.2-0.1,0.3-0.2c0,0,0,0,0.1,0c0.1-0.1,0.2-0.1,0.4-0.2c0,0,0,0,0.1,0c0.1-0.1,0.2-0.1,0.4-0.1c0,0,0,0,0,0
						c0.1,0,0.2-0.1,0.4-0.1c0,0,0,0,0,0c0.1,0,0.2-0.1,0.3-0.1c0,0,0,0,0,0c0.1,0,0.2,0,0.3-0.1c0,0,0,0,0,0c0.1,0,0.2,0,0.3,0
						c0,0,0,0,0,0c0.1,0,0.2,0,0.3,0c0,0,0.1,0,0.1,0c0.1,0,0.2,0,0.3,0c0,0,0.1,0,0.1,0c0.1,0,0.2,0,0.3,0.1c0,0,0,0,0,0
						c0,0,0,0,0,0c0.1,0,0.2,0.1,0.3,0.1c0,0,0,0,0.1,0c0.1,0,0.1,0.1,0.2,0.1c0,0,0.1,0,0.1,0c0.1,0,0.1,0.1,0.2,0.1
						c0,0,0.1,0,0.1,0c0,0,0,0,0,0c0.1,0.1,0.2,0.1,0.2,0.2c0.1,0.1,0.2,0.2,0.2,0.2c0,0,0,0,0,0.1c0.1,0.1,0.1,0.1,0.2,0.2
						c0,0,0,0,0,0c0.1,0.1,0.1,0.2,0.2,0.3c0,0,0,0,0,0c0.3,0.5,0.6,1.2,0.9,2c0,0,0,0,0,0c0,0,0,0.1,0,0.1c0,0.1,0.1,0.2,0.1,0.2
						c0,0.1,0,0.1,0.1,0.2c0,0.1,0.1,0.2,0.1,0.3c0,0.1,0.1,0.2,0.1,0.3c0.3-0.4,0.5-0.9,0.9-1.4l0-0.1c0.5-0.8,1.1-1.7,1.7-2.6
						c0,0,0-0.1,0.1-0.1C22.2,9.9,22.2,9.8,22.1,9.7C22.2,9.8,22.2,9.8,22.1,9.7z"/>
				</g>
				<path fill="#FFFFFF" d="M8.3,27.1c0,0-0.1,0-0.1,0C8.3,27.2,8.3,27.2,8.3,27.1C8.4,27.2,8.3,27.2,8.3,27.1z"/>
			</g>
		</g>
	</g>
</g>
</svg>
